<?xml version="1.0" encoding="UTF-8"?>
<svg id="_레이어_7" data-name="레이어_7" xmlns="http://www.w3.org/2000/svg" version="1.1" xmlns:xlink="http://www.w3.org/1999/xlink" viewBox="0 0 555.32 273.57">
  <!-- Generator: Adobe Illustrator 29.0.1, SVG Export Plug-In . SVG Version: 2.1.0 Build 192)  -->
  <defs>
    <style>
      .st0 {
        fill: url(#_무제_그라디언트_1126);
        filter: url(#outer-glow-1);
      }
    </style>
    <linearGradient id="_무제_그라디언트_1126" data-name="무제 그라디언트 1126" x1="280.06" y1="236.97" x2="280.06" y2="8.86" gradientUnits="userSpaceOnUse">
      <stop offset=".13" stop-color="#f8c897"/>
      <stop offset=".52" stop-color="#f9f7cb"/>
      <stop offset="1" stop-color="#69c1ed"/>
    </linearGradient>
    <filter id="outer-glow-1" x="9.84" y="9.59" width="540" height="258" filterUnits="userSpaceOnUse">
      <feOffset dx="0" dy="0"/>
      <feGaussianBlur result="blur" stdDeviation="5.67"/>
      <feFlood flood-color="#320304" flood-opacity="1"/>
      <feComposite in2="blur" operator="in"/>
      <feComposite in="SourceGraphic"/>
    </filter>
  </defs>
  <path class="st0" d="M303.18,41.06c-.09-.28-.19-.56-.32-.85.14.29.24.57.32.85ZM303.18,41.06c.02.06.04.12.05.18-.02-.06-.03-.12-.05-.18ZM265.93,68.72h-5.44l-3.31,2.25-3.4-2.25v-1.78h25.15l6.03-3.47,5.35,3.47h-.08v1.78h-12.57c-.25,6-.93,12.57-2.04,18.1,2.72,3,14.53,14.07,14.19,21.76-.42,8.72-7.56,6.94-8.84,4.32-1.1-2.25-5.01-14.54-7.05-20.07l-1.1,2.91c-4.33,9.29-22.6,17.82-22.6,17.82,15.72-12.1,15.38-36.96,15.72-44.84ZM304.42,57.47l16.06,1.88v70.16c0,4.03-2.8,6.28-5.78,7.69-1.7.75-3.65,1.31-5.78,1.69V59.81s-5.18-2.34-4.59-2.34h.09ZM411.23,114.72c1.46-2.52,2.31-4.77,2.55-6.74-2.1,0-3.76-.81-4.98-2.43-1.05-1.44-1.58-3.19-1.58-5.26s.53-3.91,1.58-5.26c1.21-1.53,2.87-2.29,4.98-2.29s3.72.77,4.86,2.29c1.13,1.44,1.7,3.19,1.7,5.26,0,1.51.43,5.65-1.97,10.07-.23.42-.84,1.5-2.05,2.97-1.62,1.97-4.77,5.16-10.31,7.73,2.02-1.89,3.76-4,5.22-6.34ZM144.45,35.67c-.48-.65-2.19-3.16-.75-5.07.59-.78,1.94.41,2.13-.79.53-3.31,6.73-4.53,7.86-.81.16.52,0,2.04-.85,1.59-.64-.34-1.04-.86-1.8-.97-1.91-.27-2.72,2.44-2.63,3.99.06,1.11.19,2.38.72,3.38,1.49,3.74,6.64,4.97,9.92,5.66.26.05.59.06.94.02-2.29-.81-4.38-2.08-5.47-4.26-1.18-3.25,2.13-5.8,5.12-4.88.88.22,1.67.63,2.41,1.11-2.12-1.18-5.45-1.33-6.48,1.16-.89,3.14,2.88,4.53,6.04,5.08v-.14h61.78l10.38-5.35,10.38,5.35v26.76c2.55-.32,5.1-.69,7.64-1.13-3.24.89-6.52,1.61-9.83,2.2-.49.11-.97.22-1.46.33-.81.18-1.56.29-2.3.39h-.79c-11.66,1.61-23.58,1.51-35.24.04-5.49-.73-10.99-1.23-16.49-1.47.02.36.04.71.05,1.07,0,0,0,0,0,0,0,.03,0,.07,0,.1,0,0,0,.01,0,.02,0,.04,0,.07,0,.11,0,.04.02.08.02.12h-.04v24.3c0,.55.12.96.25,1.37.37.82.99,1.24,1.98,1.24h29.65l13.84-7.28,13.96,7.28v2.61h-45.96c.62.27,1.36.55,1.98.69,4.94,1.79,9.64,5.35,9.64,11.26v14.14h22.98l12.11-9.06,12.11,9.06v2.75h-94.64l-7.29,3.57-7.29-3.57h0c-.99-.51-2.03-1.23-2.57-2.19,1.21-.12,2.76-1.2,3.5-2.16,1.16-1.49,1.33-2.02,2.08-3.05.11-.15,2.05.52,2.94.22.84,1.32,1.08,2.9.87,4.43h35.92v-26.08h-18.9c-3.95,0-5.81-2.06-6.67-4.26-.49-1.24-.74-2.61-.86-4.26v-20.87h0s.01-.03.01-.05v-1.14c-4.2.35-8.39.87-12.58,1.58,5.14-1.39,10.38-2.37,15.65-2.98.3-.05.59-.11.88-.16h.65c10.78-1.11,21.72-.74,32.44.67,7.48.97,14.97,1.44,22.46,1.4v-1.07c0-.05.02-.11.02-.16v-.6c0-.08-.01-.15-.02-.22h.02v-23.34h-42.5l-10.38,5.35-10.38-5.35v-.11c-6.64,3.63-9.32,1.61-10.79,2.39-.56.3-1.56,1.08-1.87,1.65-.34.64.06,2.08-.53,2.47-.69.47-1.63-.52-2.01-1.03-1.56-2.1.31-3.63.91-4.21.33-.32,1.82-1.36,1.7-1.79-.22-.79-1.9-1.02-2.5-1.27-.75-.32-3.49-2.74-3.21-3.64.31-1,1.4-.29,2.06-.54.78-.3-.73-1.35-.92-1.6ZM283.99,58.8c1.75-1.07,2.74.12,2.74.12-2.29-3.74-.28-6.06.72-6.8,1.48-1.08,3.73-1.34,5.33,1.28,1.61,2.62-.04,4.14-.04,4.14.34-.98-.55-2.58-2.05-1.66-.62.38-1.17,1.56-1.13,1.8.19,1.03.72,1.85,1.45,2.47.1.09.21.18.33.26.14.1.29.19.45.28l12.54,1.47v61.72c0,4.03-2.8,6.28-5.78,7.69-1.7.75-3.65,1.31-5.78,1.69v-45.87h-3.65c-1.02,2.16-2.97,3.47-5.27,3.47-3.31,0-5.95-2.91-5.95-6.57h14.87v-21.67s-2.6-1.18-3.9-1.86c-1.56-.72-2.88-1.48-4.12-.72-2.06,1.26-1.03,2.95-1.03,2.95-1.98-1.27-1.49-3.12.26-4.19ZM437.53,69.33c.66-.4,1.31-.82,1.93-1.28,3.65-2.69,6.51-6.27,8.47-10.21-2.66,4.2-6.5,7.65-10.93,9.79,1.03-1.08,1.93-2.33,2.86-3.74,3.62-4.76-.75-14.7-6.1-11.01-1.91,1.32-3.5,5.77-.56,6.99.94.39,2.63-.71,3.28-.21,1.02.79-.32,3.7-.75,4.43-1.71,2.89-4.36,4.51-7.04,5.84-.14.01-.28.03-.42.04-1.57.04-3.15.04-4.73,0-10.24-.22-20.78-1.52-30.97-4.02v-.09c-1.26-.27-2.51-.56-3.76-.88-13.82-3.84-26.83-9.98-37.36-18.86-2.69-2.21-5.5-4.32-8.39-6.26-9.86-6.89-21.52-11.62-33.61-12.22-6.08-.03-13.24,1.01-16.85,6.46-2.25,3.43-2.8,8.2-.49,11.71,3.78,5.41,12.82,1.55,11.13-4.57,1.24,4.7-4.29,8.62-8.68,6.23-3.51-2.09-3.58-6.79-1.91-10.24-.24,2.42.59,4.87,2.85,6.09,1.54.7,3.49.12,4.36-1.32-.47.66-1.17,1.16-1.94,1.35-4.17.78-5.59-4.56-4.23-7.79.11-.14.21-.28.33-.41,3.65-4.32,10.06-4.37,15.28-4.23,15.45,1.19,29.14,9.46,40.62,19.41.14.11.29.22.43.33l-.24.12h-10.36v.11h-15.44v2.02l8.05,4.15,8.05-4.15h10.93v24.42c-.85-.14-1.69-.29-2.54-.48-8.51-1.91-17.83-1.6-25.75,2.27,1.37-.37,2.75-.66,4.12-.91v27.11c.1,1.28.29,2.34.67,3.3.67,1.7,2.11,3.3,5.18,3.3h23.11c6.9,0,12.56-1.71,17.07-4.26,1.63-.85,3.07-1.81,4.41-2.88v29.72c2.78-.43,5.27-1.07,7.48-1.92,3.74-1.39,7.48-4.15,7.48-8.74v-39.31h15.34c0-4.15-2.97-7.46-6.71-7.46-2.59,0-4.79,1.49-5.94,3.94h-2.68v-10.94c10.15,2.24,20.62,3.2,30.97,3.02,1.08-.02,2.15-.07,3.22-.13,0,0,0,.01,0,.01.04,0,.09-.01.13-.02,24.91-1.35,48.61-11.55,68.78-25.82-17.4,11.38-37.41,19.8-58.13,22.16ZM377.61,100.21l-.67.64c-3.64,4.26-9.3,6.71-20.81,6.71h-13.14v-29.71c1.81.24,3.63.54,5.44.96,5.65,1.22,11.62,1.33,17.3.16h.56v-.11c2.72-.61,5.37-1.51,7.87-2.74-2.61.72-5.24,1.22-7.87,1.55v-16.84c3.67,1.86,7.45,3.5,11.31,4.92v34.47ZM130.41,97.47c.1-.99-1.03-.76-1.6-.16-1.39,1.48-.74,5.3,2.89,4.48.4-.09.81-.22,1.22-.36.32-.11.46-.02.2.26-1.11,1.21-2.79,1.75-4.38,1.41-1.18-.26-2.23-1.09-2.76-3.06-.36-1.37-.17-2.88,1.13-4.59,1.31-1.73,4.2-2.81,6.24-1.63,1.16.67,1.4,1.82,1.38,3.05-.01.81-.17,1.51-.91,2.28-.96,1-2.85,1.71-3.36-.14-.16-.56-.1-.98-.04-1.53ZM130.87,112.34c1.58-.14,1.25-.53.01-1.42-1.06-.76-2.12-1.51-3.16-2.3-1.69-1.28-2.76-2.1-5.19-1.57-1.55.34-1.32.59-.32,1.6,2.01,2.05,5.78,3.94,8.66,3.68ZM141.93,116.48c4.29-3.03,7.76-5.28,9.61-12.06.42-1.54-.67-.96-1.96-.22-.96.55-2.82,1.42-3.5,1.59-2.12.53-2.04.95-1.82,3.08.3,2.91-.95,4.88-2.69,7.1-.37.47-.83,1.34.35.5ZM135.26,85.71c-1.09-.46-1.65-.83-3.92-.53-2.59.34-3.51-.07-5.74.02-3.39.14-6.98,4.25-6.23,7.22.17.69.13.71-.13,1.69-.17,1.81-.1,2.97.51,4.77.95,2.79,4.17,4.93,6.95,5.56.61.14.48-.42.13-.68-3.09-2.34-2.59-7.6-.78-10.54,1.66-2.68,2.88-3.95,5.37-5.06,2.22-.99,4.69-.76,6.71.56,1.26.83,1.17.44.42-.63-1.05-1.38-2.33-1.98-3.26-2.38ZM132.14,88.89c-1.39.73-2.26,1.48-3.01,2.88-.4.75-.36,1.14.59.83,1.21-.4,2.63-.37,3.68-.07,2.07.59,2.74,3.13,2.74,5.37,0,3.31-2.65,5.52-5.73,6.03-.58.1-1.74.25-.62.68.69.26,2.95-.07,3.67-.3,1.75-.56,2.55-.99,3.23-1.57,1.6-1.35,2.34-3.17,2.64-4.85.57-3.15.3-5.35-1.11-7.41-1.98-2.89-4.15-2.59-6.07-1.59ZM117.05,102.51c-.58-1.57-1.15-1.54-1.22.24-.13,3.57-.03,6.02.81,8.66,1.24,3.91,4.1,9.52,8.97,8.95,1.87-.22,3.07-1.37,4.8-.21,3.41,2.3,12.5-5.01,12.87-9.38.13-1.47-.33-.94-1.51-.26-4.49,2.58-9.85,4.24-14.88,2.27-4.65-1.82-8.09-5.59-9.83-10.27ZM119.54,85.63c.57,1.37.9,1.17,1.51.67,3.59-2.98,5.34-2.7,9.71-2.48,4.21.21,7.28,1.94,10.37,4.83,1.96,1.83,4.04,3.71,4.74,6.24.84,2.98,1.43,6.12-.68,8.68-1.55,1.89.29,1.28,1.52.78,3.53-1.45,5.7-3.12,8.57-5.92,2.03-1.98.7-5.19-1.15-6.87-1.53-1.39-2.94-2.66-4.31-4.31-2.01-2.42-3.73-4.43-5.1-7.52-.95-2.14-2.06-2.46-4.32-1.99-2.18.45-4.29.92-6.58,1.16-3.39.35-6.54.48-10.09-.5-.79-.22-1.73-.52-2.54-.68-3.08-.62-3.21,3.36-2.62,5.52.28,1.04.65,1.63.98,2.43ZM136.76,103.95c-1.47,1.06-3.6,2.47-6.38,1.87-2.43-.52-4.58-.94-7.15-.48-1.68.3-1.06.63.19.64,2.31.03,3.71.9,5.41,2.33,1.42,1.19,2.76,2.08,4.88,2.59,3.45.83,6.61-.79,8.19-3.86.62-1.19,1.07-2.35,1.77-3.82,1.45-3.04,2.32-4.42.57-7.85-.75-1.47-1.53-2.5-3.47-3.45-.99-.49-1.35-.74-.8.41,2.25,4.73.73,8.79-3.22,11.62ZM110,122.37c2.6,1.26,4.69,2.23,7.42,3.2,5.01,1.78,8.48.14,13.33-.83,1.53-.31,1.42-.41.11-.95-1.67-.69-3.71-1.13-5.48-1.62-2.98-.8-4.02-1.33-5.25-2.08-2.29-1.41-3.1-3.01-4.01-5.34-1.34-3.43-2.43-7.59-1.89-11.3.18-1.24-.02-1.59-.85-1.7-.84-.12-1.8-.27-2.72-.4-3.07-.45-5.54,1.03-4.86,4.37.09.42.17.84.26,1.27.37,2.38.67,4.1.78,6.05.09,1.6-.07,3.08-.06,4.64.01,2.16,1.32,3.78,3.23,4.71ZM118.79,86.95c-2.73.73-3.95,1.47-4.82,4.2-.72,2.26.43,5.34,1.67,7.29,2.59,4.1,5.77,5.49,8.63,6.12.54.12.52-.12.05-.34-1.98-.94-3.31-1.74-4.6-3.53-2.01-2.79-2.4-5.97-1.76-9.34.23-1.21.7-1.96,1.41-3.6.36-.83.26-1.03-.58-.81ZM109.66,98.75c1.32.9,2.8,1.5,4.3,2.04.71.26,1.82.65,1.12-.69-.61-1.19-1.09-2.29-1.45-3.37-.76-2.24-.88-3.66-.65-5.18.4-2.68,2.32-5.58,3.53-8.03.82-1.44-.55-1.42-1.11-1.1-2.71,1.57-4.3,3.32-6.75,4.94-.37.24-.73.48-1.1.73-2.65,1.75-2.63,2.42-2.13,4.22.76,2.77,1.83,4.77,4.25,6.42ZM151.07,119.26c2.32-4.55,2.66-4.88,6.85-8.72,1.73-1.58,2.39-2.3,1.69-4.83-.48-1.73-1.44-2.91-3.88-4.47-1.45-.93-1.6-.75-2.04.72-2.1,7.08-4.25,10.48-10.51,14.79-4.19,2.88-7,4.48-12.15,4.82-1.08.07-2.09.24-.35,1,2.36,1.29,4.54,2.65,8.78,2.68,5.53.05,8.7-.3,11.62-6ZM121.17,211.78c0-5.07-2.52-9.69-6.97-12.95-1.62-1.24-3.43-2.37-5.45-3.38,1.62-.34,3.13-.79,4.44-1.35,3.94-1.46,7.88-4.39,7.88-9.24v-7.55h16.16c0-4.39-3.13-7.88-7.07-7.88-2.73,0-5.05,1.58-6.26,4.17h-2.83v-36.72l-21.11-2.25h-.1c-.34,0,.9.64,2.28,1.32,1.5.73,3.18,1.5,3.18,1.5v47.76s0,0,0,0c0,.05.02.1.02.15v2.52c-7.53.65-15.1.45-22.65-.63-.07-.01-.14-.02-.21-.03-.32-1.39-1.01-2.38-2.08-3.15-.91-.56-1.92-1.01-2.83-1.35,1.41-.22,2.73-.56,4.04-1.01,7.98-2.48,13.63-8.56,13.63-15.32,0-9.46-10.2-16.79-22.02-16.79s-22.02,7.32-22.02,16.79c0,6.76,5.76,12.84,13.53,15.32,1.11.34,2.12.68,3.23.79v3.85c-7.08.19-14.11,1.32-20.78,3.72,11.68-2.5,23.47-2.59,35.26-.84,7.56,1.05,15.33,1.09,22.89-.07v.8s0,.05,0,.08v4.07c-2.6-.89-5.39-1.56-8.28-1.9h-8.95c-12.09,1.36-24.78,8.57-24.78,19.59s13.03,18.59,28.88,18.59,28.98-7.77,28.98-18.59ZM64.52,166.38c0-6.31,2.52-13.07,8.68-13.07s8.79,6.76,8.79,13.07c0,5.86-2.52,12.84-8.79,12.84s-8.68-6.98-8.68-12.84ZM92.19,227.21c-9.19,0-12.22-6.87-12.22-15.43s3.03-16.67,12.22-16.67,12.32,8.11,12.32,16.67-3.23,15.43-12.32,15.43ZM136.84,160.07l-4.95-2.93v-2.14h54.94l.79-.41c-.04-.09.05-.23.32-.46,1.16-.96,2.23-2.51,2.99-3.8,1.21-2.05,2.89-2.46,4.87-3.51,1.72-.92,3.53-.99,4.95-2.5.36-.38,1.81-3.06,1.8-1.13-.02.19-.02.2-.02.15-.42,3.13-3.29,6.13-5.9,7.95l7.18,3.72c-3.23,25.8-11.82,32.78-25.95,39.09l-1.21-2.03c10.81-19.26,10-28.61,10-34.92h-44.84l-4.95,2.93ZM268.03,186.4v-51.82s-6.16-2.82-5.45-2.82h.1l21.11,2.25v41.12c0,4.84-3.94,7.77-7.88,9.24-2.32.9-4.95,1.58-7.88,2.03ZM380.07,165.78c4.27,4.62,20.01,20.85,19.59,31.96-.52,12.61-9.48,8.61-11.46,4.87-1.67-3-7.71-20.72-10.73-28.34l-1.77,4.12c-3.7,4.73-10.01,11.63-19.62,17.52-7.01,4.3-13.75,6.82-19.31,8.33v23.48c0,3.28-2.54,5.26-5.09,6.26-1.5.61-3.19,1.07-5.08,1.37v-18.15c-3.17,1.29-6.53,2.08-9.96,2.16-6.67.21-13.13-1.91-19.66-2.45-2.16-.18-4.35-.2-6.52-.07-2.11.16-4.57.17-5.93,2.07,1.24-1.99,3.79-2.18,5.9-2.45,2.18-.27,4.39-.38,6.6-.33,6.58.14,12.98,1.87,19.51,1.33,3.53-.28,6.91-1.36,10.03-2.97v-2.22s0-.04,0-.05c.01-.02.03-.03.04-.05v-39.59s-3.98-1.91-3.52-1.91h.07l13.63,1.53v30.66c3.91-1.94,8.34-4.79,12.48-8.99,7.98-8.09,10.68-16.91,12.93-24.27,1.89-6.18,4.19-16.44,3.2-29.52h-.03s0-.07,0-.11c-1.95-.09-3.9-.2-5.81.04-3.11.3-5.76,2.33-2.42,4.82-1-.45-2.12-1.3-2.19-2.54.45-3.7,6.31-4.46,10.48-4.32,0-.03,0-.06,0-.08,0-.09,0-.17,0-.26,0-.02-.01-.04-.01-.05h9.67c4.48,0,6.36,2.75,7.19,5.37.52,1.5.63,3.25.52,5.24-.52,5.99-1.46,12.23-2.71,17.6ZM514.32,140.19v29.7h3.17c1.36-3.02,3.96-4.86,7.02-4.86,4.41,0,7.92,4.07,7.92,9.2h-18.11v21.68c0,5.65-4.41,9.07-8.83,10.78-2.6,1.05-5.55,1.84-8.83,2.36v-68.2s-.94-.45-2.09-1.01c-1.06,1.41-3.08,3.58-4.32,2.92-2.24-1.2-.43-3.69.85-3.13.8.35.81,1.08.81,1.08-.41-1.19-2.27,0-1.21.99.89.83,2.71-.83,3.73-1.92-.55-.27-1.13-.56-1.68-.84-.04-.01-.09-.03-.13-.04-2.14-.62-4.63-1.59-5.46-3.89-1.04-2.18,1.08-5.37,3.54-4.25,1.13.44,1.37,2.23.2,2.76,0,0-.01-.02-.01-.02,1.09-.54.83-2.23-.26-2.61-1.02-.47-2.23.04-2.84.92-1.37,1.89,0,4.42,1.89,5.35.35.15.7.28,1.06.41l23.56,2.62ZM490.44,201.17c1.02,0,1.92-1.05,1.92-2.23s-.91-2.1-1.92-2.1l-4.53-1.31v-45.34l-9.51-5.13-8.15,4.99h-17.32s-16.66-.8-22.09-1.16v-20.07c.71-.77,1.57-1.42,2.64-1.85,2.51-1.02,5.72.87,5.22,3.78-.16.92-2.45,2.29-2.3,2.7.45,1.22,2.28.61,2.92.02.96-.89,1.4-2.07,1.56-3.35.09-.71.2-1.49-.02-2.19-.12-.37-.58-.85-.49-1.27.22-1.07,2.46-.14,1.05-1.9-.73-.91-.97-2.48-2.4-2.58-.48-.03-2.23.97-1.98-.09.28-1.22-.69-1.71-1.84-1.49-1.62.07-3.04,2.2-3.97,3.31-.88,1.05-1.46,2.25-2.02,3.48l-20.15-2.31h-.1c-.73,0,5.63,3.12,5.63,3.12v36.83h-21.05c0,4.87,3.23,8.74,7.29,8.74,2.81,0,5.21-1.75,6.46-4.62h7.29v61.79c3.02-.5,5.73-1.25,8.13-2.25,4.06-1.62,8.13-4.87,8.13-10.24v-69.29c2.15.58,5.56,1.54,5.56,1.54v56.77c1.7-.26,3.28-.66,4.98-1.18,2.83-.92,6.11-2.5,8.72-5.13h42.34ZM450.93,194.34v-39.95h18.45v42.45h-18.79c.23-.79.34-1.58.34-2.5ZM117.94,197.99c15.66-4.33,32.26-4.63,48.33-2.78,16.03,1.89,31.99,1.74,48.03-.23-15.64,4.35-32.22,4.99-48.32,3.21-16.05-1.95-31.97-2.11-48.04-.2ZM517.23,212.25c-1.6,1.34-3.51,2.12-5.51,2.63v19.55c0,12.35-19.36,14.72-19.81,14.72v-32.54c-3.23-.11-6.46-.38-9.63-.75-1.01-.13-2.01-.24-3.01-.35h-20.63l-9.62,4.99-9.51-4.99v-.39c10.49-2.72,21.46-3.67,32.3-3.17,8.69.49,17.25,1.98,25.91,2.02,3.67-.36,7.34-.75,11.03-.82.23,0,.42-.05.6-.13h2.39v.1c1.68-.3,3.31-.81,4.79-1.74,1.12-.79,2.87-2.58,1.35-3.74-.76-.44-1.75.27-1.63,1.17-.3-1,.81-1.97,1.81-1.58,2.25,1.16.59,3.89-.81,5.05ZM204.26,167.7c-.29-5.04,4.42-8.32,8.53-10.39v27.06c1.72-.23,3.33-.56,4.95-1.01,2.73-.79,5.96-2.14,8.28-4.39h17.27v5.41c2.93-.45,5.55-1.13,7.88-2.03,3.94-1.46,7.88-4.39,7.88-9.24v-18.12c2.78-1.22,5.12-3.41,6.63-6,0,0-.16-.12-.16-.12-1.73,1.66-3.78,2.93-5.92,3.51-.18.05-.37.09-.55.13v-11.05l-21.11-2.25h-.1c-.71,0,5.45,2.82,5.45,2.82v10.03h-14.68s0-.07,0-.07c-.02,0-.05,0-.07,0v-10.52l-21.11-2.25h-.1c-.71,0,5.45,2.82,5.45,2.82v13.65c-4.22,2.55-9.35,6.56-8.53,12.03ZM243.29,175.25h-15.05c.2-.68.3-1.35.3-2.14v-17.35h14.74v19.49ZM52.19,149.05c-3.4,1.88-6.17,1.95-8.35.84-1.19-.61-1.96-1.68-3.11-2.32-.4-.22-1.22-.08-1.53-.37-.39-.36.59-.97.94-1.04,1.09-.23.73-.66.22-1.17-.84-.85-1.07-2.28-2.05-3-.43-.31-2.99-.32-2.78-1.05.06-.2,1.43-1.33.78-1.17-.67.16-1.44.42-2.06.46-.8.05-1.7-1.71-.3-1.83.69-.06,1.47-.42,2.19-.59.56-.13.1-.67.35-.98,1.12-1.44,2.22.79,2.56.94.27.11.16-.46.16-.46-.21-.65-.73-1.02-1.18-1.44-.62-.55-1.14-1.11-2.2-1.1-.53,0-2.53.56-2.23-.42.1-.31,1.21-.95.5-.94-.87.02-2.49.3-3.49,1.23-1.03.96.22.53.03,1.44-.21,1.03-1.79,1.8-2.39,1.52-2.09-.98,1.77-4.52,3.64-5.15,1.16-.39,2.32-.63,3.24-.44.81.17,1.16.79,1.85,1.03.24.08.38-.22.44-.41.21-.7.69-.46.98-.43,1.24.14,1.45.98,1.67,2.15.4,2.21.61,4.54.81,6.87.1,1.19.22,2.38.63,3.37.21.5.49.95.85,1.31.19.2.89.19.8-.37-.13-.85-.84-1.34-1.06-2.16-.26-1.02-.46-2.09-.47-3.27,0-.94.15-1.98.61-3.08.43-1.03,1.72-2.94,2.87-3.47,1.07-.5-.04,1.6.44,1.5.14-.03,1.24-2.12,1.44-2.36,1.18-1.45,2.21-1.46,3.51-2.36,1.42-.97,0,1.13.11,1.27.09.11,2.24-1.1,2.68-1.18.99-.17,1.91.07,2.01,1.01.15,1.47-.85.66-1.34.55-1.06-.24-2.75.56-4.03,1.53-4.62,3.5-6.53,8.65-5.06,11.59h28.16c-.3-1.71-1.06-4.25-3.1-6.59-2.07-2.38-4.48-3.42-5.69-3.85,1.14-.38,3.84-1.43,6.05-4.14,2.67-3.27,2.9-6.84,2.92-7.97.07,1.23.44,4.67,3.04,7.87,2.15,2.65,4.74,3.77,5.93,4.21-1.2.4-3.6,1.39-5.67,3.73-2.11,2.38-2.87,5.01-3.14,6.75h8.86l7.88-4.05,7.88,4.05v2.25h-43.26c-.72.7-1.98,1.37-2.58,1.7ZM389.2,231.3c.31-.22.64-.36,1.01-.45.22-.05.46-.03.63-.19-.58-.88-2.7.33-3.31.61-.59.27-1.21.48-1.84.63-.92.23-.85.99-1.05,1.77,0,.03-.02.06-.03.1-.06.23-.16.51-.22.79-.65.23-1.31.46-1.96.68.31-.44.52-1,.33-1.71-.95-.05-1.87-.44-2.16-.25-.47.3-.62.73-1.26,1.17.1.77.57,1.2,1.04,1.44-.8.26-1.61.51-2.41.75-.54-1.3-.49-2.44-2.3-2.64-.03,0-.07,0-.1,0-1.65-.14-4.22,1.74-4.93,3.32.67-1.49,4.18-.68,6.26-.34-9.72,2.88-19.67,4.95-29.72,6.36.39-.12.78-.24,1.17-.38,4.46-1.59,8.8-5.37,11.15-10.29,2.61-4.5,2.29-12.85-3.41-13.74-4.18-.65-8,7.86-2.89,8.87,2.12.42,3.19-2.13,2.02-4.04-.66-1.08,1.49,0,1.55.04.74.66,1.24,1.65,1.39,2.74.35,2.44-.89,5.59-2.24,7.32-.42.54-4.44,5.85-4.89,5.21.04.06,2-4.51.18-4.11-.61.13-1.14,2.32-1.59,2.89-.78.98-1.82,1.6-2.71,2.42-1.55,1.43-3.55,2.11-5.39,2.76-.9.32-2.72.78-3.89,1.45-8.13.81-16.3,1.23-24.46,1.3-38.84.46-76.89-6.78-115.02-13.5,0,0,0,0,0,0h0v-26.25l-8.48-4.39-8.28,4.28h-29.89l-22.22-1.13,6.46,1.69v16.85c-6.14-.2-12.22.45-17.79,3.27-4.28,2.24-8.6,6.69-7.64,11.9.66,3.3,3.42,6,6.63,6.46-3.17-.71-5.55-3.54-5.92-6.58-.42-3.1,1.43-5.98,3.74-7.9,4.85-3.97,11.43-4.95,17.56-4.81,6.27.14,12.56,1.33,18.88,2.35,44.22,7.37,88.07,18.69,133.03,21.51,38.34,2.24,78.59-1.5,112.9-19.91-3.36,1.47-6.76,2.81-10.2,4.05.98-.57,1.36-1.73,2.27-2.38ZM151.48,224.89v-15.25h30.9v19.92c-10.22-1.72-20.46-3.32-30.73-4.65-.06,0-.12-.01-.18-.02ZM212.5,224.05c-3.09.47-6.08.77-8.95.93,4.65-.39,18.33-2.15,29.29-13.17,4.66-4.68,7.41-9.62,9.05-13.33h-17.27l-4.95,2.93-4.95-2.93v-2.25h31.11l-.51-.45c-2.02-2.03-4.85-4.73-6.87-8.11,2.32-1.13,4.75-1.8,7.07-2.03,4.04-.34,9.09.56,13.13,5.41,1.01,1.24,1.21,2.48.5,3.72-.3.56-.71,1.01-1.11,1.46h8.99l7.88-4.06,7.88,4.06v2.25h-28.58c3.94,1.24,3.74,2.37,3.03,3.38,4.04,2.7,27.17,10.59,26.76,17.01-.51,7.32-8.38,10.59-13.13,6.19-1.62-1.8-14.34-13.86-17.27-18.36l-1.72,2.37c-9.63,6.11-22.89,12.49-39.39,14.98ZM305.64,175c-.31,2.25-1.54,3.45-2.64,4.59-.13.13-.26.27-.38.4.44-.08.87-.11,1.19-.04.87.2,2.63.36,4.21,1.17.16.08-1.14,1.26-1.08,1.26-1.79-.58-3.58-.5-5.65.61-.82.44-3.54,2.92-3.55,5.65,0,.01-2.31.3-2.6.41-2.3.85-1.55,3.22-.31,5.03.72,1.04.54,1.94,1.22,5.32-.45-.02-2.29-2.13-2.93-3.08-1.38-2.02-3.34-4.02-2.53-6.5.29-.86.6-1.68.46-2.58-.14-.89-.19-.9.58-1.53,1.29-1.06,2.64-3.01,4.88-3.52,1.27-.29,1.81.11,2.03-.1.26-.24.69-.55,1.11-.84.34-.44.69-.86,1.04-1.3,1.13-1.41,2.48-2.97,2.55-4.87.02-.66-.02-1.84-.62-2.29-.36-.28-1.48.95-2,1.02-2.04.26-2.7-2.59-1.6-3.89,3.23-3.83,7.5.45,6.64,5.06ZM286.61,198.28c.14,1.62,1.08,3.21,2.01,4.5.55.76,1.43,2.01,2.5,1.9.44-.05.87-.4,1.29-.41.29,1.5,1.75,2.13,2.89,2.85.98.62,1.89,1.21,3.07,1.34,1.22.13,2.05.6,3.16,1.06,1.23.51,2.83.89,3.99,0,1.01-.78,1.77-1.91,2.84-2.59,1.06-.67,3.03.22,4.11.52,1.93.53,3.8-.09,5.55-.92,1.6-.75,2.05-2.17,2.53-3.76.18-.6.52-1.3.58-1.92.06-.58-.46-.61-.99-.54-1.01.13-2.02.74-2.89,1.22-1.33.73-2.63,1.54-3.97,2.24-1.99,1.03-6.23,4.34-9.34,3.19-4.06-1.5-8.22-5.5-9.08-6.24-1.42-1.24-2.6-2.7-3.89-4.07-.49-.52-3.65-3.88-5.01-3.53-.84.22.5,1.35.92,1.65.92.68.32,1.22-.01,2.08-.18.46-.31.95-.26,1.45ZM320.36,184.4c-.26-.53-.94-.73-1.43-.99-.82-.43-1.16-1.37-1.95-1.8-.81-.43-2.73-1.83-4.91-1.25-2.47.66-3.35,2.04-3.14,2.29,1.05,1.2,2.49,3.7,2.74,5.3-.15-.99,2.11-2.18,2.14-.81.02,1.04,1.01,1.87,1.8,3.12.87,1.39,1.42,3.56.7,5.32-.57,1.38-1.55,2.51-1.9,3.96-.22.93-.43,1.76-.32,2.59.42-.09,2.77-1.67,3.26-2.12.48-.43,1.11-3.08,1.34-4.69.67-.62,1.29-1.27,1.7-2,.67-1.22,1.02-2.64.87-4.03-.12-1.13-.62-2.14-.73-3.25-.05-.53.08-1.16-.16-1.64ZM296.24,190.97c-.19-.51-.5-1.16-1.07-.6-.06.06-.09.15-.13.23-.1.2-.13.33-.14.55-.03.45.1.64.37.98.29.36.65.7.92,1.08.61.86.7,2,.75,3.02.06,1.21.23,2.32.36,3.6.09.88.86,2.02,2,2.97,1.78,1.48,4.16,3.1,6.02,3.07,3.17-.05,7.07-2.81,7.21-3.06.16-.28.76-4.09.95-4.64.36-1.02-1.54-2.86-2.72-3.34-2.08-.86-3.51-1.01-5.68-.71-1.86.26-3.92,1.1-5.79.72-.73-.15-1.69-.66-2.17-1.31-.56-.76-.57-1.7-.89-2.56ZM314.37,196.5c1.33-2.47.51-4.1.14-5.02-.59-1.45-1.33-2.38-1.44-3.75-.04-.49-.72.48-1.16,1.67-.16.41-.42,1.18-.78,1.35-.39.18-1.25.09-1.68.19-.5.12-1.41.56-2.46,2.21,1.98-.35,4.27.68,5.31,1.23.5.26,2.22,1.81,2.08,2.12ZM297.51,190.03c.15.84.28,1.27.63,2.32.23.69.36,1.08,1.08,1.24,1.9.42,3.44.52,4.92-1.07.22-.24,1.14-1.49,1.22-1.88-2.11.54-3.73.58-5.38.3-1.09-.18-2.51-1.12-2.47-.9ZM308.2,189.88c.14-.59-.55-2.15-.89-2.42-.12.82-.21,1.08-.39,1.81-.24,1-.79,2.3-1.69,3.54.58.09,2.7-1.75,2.97-2.93ZM310.56,189.49c-.08-2.32-1.93-5.44-4.17-6.31-.65-.25-2.63-.2-3.47.12-1.82.68-3.07,2.12-3.55,4.07,1.92-1.72,3.76-2.41,6.31-1.84,1.88.43,3.56,3.05,3.75,4.36q.77-.28,1.13-.4ZM305.92,188.02c.48.19-.7-2.2-3.04-1.7-1.93.41-3.08,1.78-3.39,3.33.31-.27,1.15-1.32,1.54-1.56,1.92-1.19,3.37-.69,4.9-.07ZM303.11,189.54c.6-.13,1.77-.02,2.35.08,0-.19-1.67-1.41-3.13-1.19-.98.15-1.5,1-1.28,1.71.12.38,1.5-.47,2.07-.6ZM322.27,192.81c-.6.9-1.51,1.72-2.09,2.62-.88,1.36-.61,3.17.12,3.91,1.54-1.21,3.71-3.79,4.11-5.24.14-.5-.22-.99-.16-1.47.15-1.29.06-2.55-.02-3.76-.04-.6,0-1.43-.07-2.2-.07-.82-.25-1.57-.75-1.91-.11.54.19,1,.26,1.49.15,1.05-.07,2.25-.38,3.45-.24.94-.38,2.14-1.02,3.11ZM296.49,173.54c2.44,2.48,2.21,4.98,2.01,7.26-1.55.29-5.21.8-6.81-2.3-1.9-3.7-1.12-7.03-2.76-7.38,2.53-.26,5.71.53,7.56,2.41ZM374.14,220.45c.03.83.48,1.57,1.04,2.17.28.3.5.47.88.62.44.18.84.42,1.19.74-.02-.02-1.78,0-2.83-.86-.3-.25-.85-1.84-.28-2.67ZM378.13,223.78c.94.33,3.37.05,3.63-.2.23-.22,1.4-1.3,1.62-2.22.31-1.3-2.47-3.91-2.45-4.04-.13.72-.02,1.1-.46,2.46-.27.84-1.4,2.89-3,3.42-.06.02.22.42.66.58ZM378.6,221.25c.26-.21.89-1.16.71-1.54-.26-.54-1.33-.77-1.92-.75-.81.02-1.55.28-2.09.88-.49.53-.69,1.22-.06,2.06.09.12.54.55.82.63-.67-.48-.68-1.52-.65-1.84.02-.18.15-.31.28-.44.05-.05.89-.8,1.38-.82.38-.02.91-.05,1.27.06.23.07.34.44.29.62-.06.21-.16.94-.02,1.15ZM377.4,221.79c-.22-.04-.42-.1-.6-.22-.3-.2-.53-.5-.18-.79-.03,0-.06,0-.08,0-.49.31-.49.37-.42.88.03.22.48.72.63.88.54.01.81-.29,1.29-.62-.15-.11-.45-.1-.63-.13ZM377.64,220.43c-.2.1-.43.21-.54.36,0,0,.27,0,.36.08.18.17.29.52.32.57-.05-.35.12-.88.28-1.19-.12.04-.27.11-.42.18ZM375.93,215.41c-.25.11-.47.25-.74.33-.36.11-.91.38-1.21.63-1.33,1.17-1.55,3.94-1.34,4.83.11.45.55.97.75,1.33-.24-1.52.2-2.66.39-2.8.27-.2.54.07.69-.01.23-.14.75-1.8,3.38-1.63.68.04,1.53.62,2.13.95,0-.03.15-1.17-.47-2.02-.64-.87-1.33-1.53-2.42-1.69-.12-.02-.24-.03-.37-.04-.27-.01-.53,0-.78.11ZM383.66,216.93c0-1.02-1.4-2.17-1.57-2.52-.15-.3-.28-.39-.62-.49-.46-.13-.7-.23-1.15-.37-.57-.18-1.45-.35-1.99-.03-.77.45-1.48,1.2-1.48,1.2,1.83-.34,2.95,1.28,3.42,2.19.07.14.66-.82,1.36.05.78.97,1.53,1.99,1.85,2.79.21-.97.18-2.03.18-2.81ZM376.71,225.97c.7.04,2.72-.35,3.46-.62.43-.15.85-.91.94-1.07-1.62.87-5.73.37-6.42-.14-.56-.41-.92-.8-1.48-1.05-.05.46.93,2.73,3.5,2.87ZM372.64,213.59c-.93.46-1.84,1.02-2.68,1.62-.75.53-1.2,1.38-1.51,2.22-.09.24-.15.49-.24.73-.04.11-.07.23-.12.34-.42.92.35,1.5.63,2.33.11.33.21.64.37.95.39.78.77,1.32,1.55,1.76.74.42,2.58,1.56,3.2,2.04-2.51-2.23-2.72-6.73-.52-9.62,1.01-1.33,2.27-1.21,2.98-1.33-.63-.56-1.46-1.14-2.36-1.2-.54-.03-.82-.06-1.29.17ZM386.2,212.36c-.43-.63-1.02-.99-1.49-1.56-.6-.71-1.22-1.4-1.89-2.03-.18-.17-.36-.4-.59-.42-.51-.03-1.14.14-1.57.36-.63.32-1.38.4-2.05.61-.17.05-.33.1-.5.14-.55.15-1.1.27-1.66.38-.32.06-.64.12-.96.14-.18,0-.51.03-.61.24-.21.45-1.03,2.23-.46,2.35.67.15,1.62.65,2.18,1.09.13.1.96-.91,1.9-1.14,1.27-.32,3.78.71,4.08,1.01.55.56,1.63,1.95,1.8,3.43.12,1.14-.08,2.21-.19,3.66.66-1.04,1.44-1.79,1.87-2.04.26-.15.39-.22.3-.51-.31-1,.28-5.1-.14-5.7ZM373,227.96c.51.25.8.13,1.32-.07.4-.16.69-.27,1.08-.04.27.15.52.33.82.43.89.3,1.83.01,2.64-.38.41-.2,1.16-.41,1.71-1.06.18-.22.29-.45.52-.64.33-.26.65-.23,1.03-.31.62-.13.98-.54,1.35-.99.41-.5,1.42-2.04,1.56-2.29.29-.5,1.06-2.12,1.14-2.43.08-.29.13-.44-.22-.36-.35.07-.6.3-.81.57-.21.28-.38.6-.55.86-.4.63-.91,1.21-1.38,1.79-.76.94-1.55,1.89-2.31,2.81-.41.5-1.22.54-1.85.63-.66.09-1.57.26-2.77.42-.72.09-1.45.06-2.17.11-.38.02-1.77.16-1.97.39.19.25.57.44.85.57ZM383.14,226.32c-.35.2-.76.31-1.12.39-.39.1-.56.36-.86.62-.45.4-1.25.87-1.53.9,1.29.39,3.87.01,5.32-1.71,1.04-1.24,1.58-1.62,1.98-3.5.12-.56.07-1.71-.23-2.23-.36.99-2.13,4.73-3.57,5.53ZM383.16,228.58c-.43.21.11,2.07-1.89,3.42.04.82,1.84-.01,2.4-.4,1.71-1.18,2.82-2.46,3.55-2.72.51-.18.95-.34,1.37-.67,1.17-.93,1.67-1.93,2.21-3.3.47-1.2.93-2.49,1.8-3.46.21-.24.54-.44.46-.78-.14-.54-.63-1.08-1.07-1.39-.52-.37-.82-.56-.88-1.25-.03-.34,0-.7-.09-1.04-.1-.35-.32-.62-.53-.9-.42-.56-.96-1.11-1.49-1.57-.24-.2-.45-.36-.76-.39-.25-.03-.58-.08-.79.11-.25.24-.37,3.95-.38,4.26-.05,1.81,1.88,3.46-.16,6.83-.94,1.55-2.58,2.68-3.75,3.27ZM366.31,224.58c-.29,1.25-.06,2.53.24,3.76.26,1.07.8,1.19,1.78,1.38.98.19,1.61.47,2.33,1.16.71.68,1.31,1.43,2.25,1.79,1.84.72,3.56,1.21,5.42.37.46-.21,3.2-1.39,3.78-3.48.3-.78-2.24-.81-2.73-.69-2.05.48-3.67-.58-4.58-.31-.45.13-.89.19-1.31.17-1.23-.04-2.21-.65-2.32-1.35-.1-.68,1.47-1.06,2.02-1.23-.28-.48-1.86-1.14-2.32-1.45-1.05-.69-1.95-1.08-2.55-2.17-.39-.71-.34-1.39-.48-1.69-1.13.18-.85,1.88-.89,2.09-.1.58-.5,1.07-.64,1.65Z"/>
</svg>